<mxfile host="app.diagrams.net" modified="2022-11-12T09:16:20.684Z" agent="5.0 (Macintosh; Intel Mac OS X 10_15_7) AppleWebKit/537.36 (KHTML, like Gecko) Chrome/107.0.0.0 Safari/537.36" etag="N4RjJj7PiZpzu2-4JpO_" version="20.5.3" type="github">
  <diagram id="iU86J4fSX8zwEmOi1Gbl" name="Page-1">
    <mxGraphModel dx="1426" dy="794" grid="1" gridSize="10" guides="1" tooltips="1" connect="1" arrows="1" fold="1" page="1" pageScale="1" pageWidth="850" pageHeight="1100" math="0" shadow="0">
      <root>
        <mxCell id="0" />
        <mxCell id="1" parent="0" />
        <mxCell id="4k3IKvJWP4cXDZrK9bhx-1" value="" style="shape=umlActor;verticalLabelPosition=bottom;verticalAlign=top;html=1;outlineConnect=0;fillColor=#d80073;fontColor=#ffffff;strokeColor=#A50040;" vertex="1" parent="1">
          <mxGeometry x="220" y="370" width="40" height="80" as="geometry" />
        </mxCell>
        <mxCell id="4k3IKvJWP4cXDZrK9bhx-2" value="" style="shape=umlActor;verticalLabelPosition=bottom;verticalAlign=top;html=1;outlineConnect=0;fillColor=#d5e8d4;strokeColor=#82b366;" vertex="1" parent="1">
          <mxGeometry x="270" y="470" width="40" height="80" as="geometry" />
        </mxCell>
        <mxCell id="4k3IKvJWP4cXDZrK9bhx-3" value="" style="shape=umlActor;verticalLabelPosition=bottom;verticalAlign=top;html=1;outlineConnect=0;fillColor=#d5e8d4;strokeColor=#82b366;" vertex="1" parent="1">
          <mxGeometry x="290" y="260" width="40" height="80" as="geometry" />
        </mxCell>
        <mxCell id="4k3IKvJWP4cXDZrK9bhx-4" value="" style="shape=umlActor;verticalLabelPosition=bottom;verticalAlign=top;html=1;outlineConnect=0;fillColor=#ffe6cc;strokeColor=#d79b00;" vertex="1" parent="1">
          <mxGeometry x="420" y="260" width="40" height="80" as="geometry" />
        </mxCell>
        <mxCell id="4k3IKvJWP4cXDZrK9bhx-5" value="" style="shape=umlActor;verticalLabelPosition=bottom;verticalAlign=top;html=1;outlineConnect=0;fillColor=#d5e8d4;strokeColor=#82b366;" vertex="1" parent="1">
          <mxGeometry x="410" y="470" width="40" height="80" as="geometry" />
        </mxCell>
        <mxCell id="4k3IKvJWP4cXDZrK9bhx-6" value="" style="shape=umlActor;verticalLabelPosition=bottom;verticalAlign=top;html=1;outlineConnect=0;fillColor=#d80073;fontColor=#ffffff;strokeColor=#A50040;" vertex="1" parent="1">
          <mxGeometry x="500" y="380" width="40" height="80" as="geometry" />
        </mxCell>
        <mxCell id="4k3IKvJWP4cXDZrK9bhx-7" value="" style="shape=umlActor;verticalLabelPosition=bottom;verticalAlign=top;html=1;outlineConnect=0;fillColor=#ffe6cc;strokeColor=#d79b00;" vertex="1" parent="1">
          <mxGeometry x="340" y="550" width="40" height="80" as="geometry" />
        </mxCell>
        <mxCell id="4k3IKvJWP4cXDZrK9bhx-8" value="" style="shape=umlActor;verticalLabelPosition=bottom;verticalAlign=top;html=1;outlineConnect=0;fillColor=#d5e8d4;strokeColor=#82b366;" vertex="1" parent="1">
          <mxGeometry x="130" y="490" width="40" height="80" as="geometry" />
        </mxCell>
        <mxCell id="4k3IKvJWP4cXDZrK9bhx-9" value="" style="shape=umlActor;verticalLabelPosition=bottom;verticalAlign=top;html=1;outlineConnect=0;fillColor=#d5e8d4;strokeColor=#82b366;" vertex="1" parent="1">
          <mxGeometry x="160" y="270" width="40" height="80" as="geometry" />
        </mxCell>
        <mxCell id="4k3IKvJWP4cXDZrK9bhx-10" value="" style="shape=umlActor;verticalLabelPosition=bottom;verticalAlign=top;html=1;outlineConnect=0;fillColor=#d5e8d4;strokeColor=#82b366;" vertex="1" parent="1">
          <mxGeometry x="540" y="250" width="40" height="80" as="geometry" />
        </mxCell>
        <mxCell id="4k3IKvJWP4cXDZrK9bhx-11" value="" style="shape=umlActor;verticalLabelPosition=bottom;verticalAlign=top;html=1;outlineConnect=0;fillColor=#d80073;fontColor=#ffffff;strokeColor=#A50040;" vertex="1" parent="1">
          <mxGeometry x="350" y="140" width="40" height="80" as="geometry" />
        </mxCell>
        <mxCell id="4k3IKvJWP4cXDZrK9bhx-12" value="" style="shape=umlActor;verticalLabelPosition=bottom;verticalAlign=top;html=1;outlineConnect=0;fillColor=#ffe6cc;strokeColor=#d79b00;" vertex="1" parent="1">
          <mxGeometry x="530" y="570" width="40" height="80" as="geometry" />
        </mxCell>
      </root>
    </mxGraphModel>
  </diagram>
</mxfile>
